<svg width="88" height="105" viewBox="0 0 88 105" fill="none" xmlns="http://www.w3.org/2000/svg">
<path fill-rule="evenodd" clip-rule="evenodd" d="M50.5159 1.52913C56.1553 0.412999 62.0569 1.06955 67.3028 3.43311C82.2535 10.9834 84.4174 34.7504 64.6798 45.649C64.6798 45.649 62.7782 51.0327 60.8766 52.1488C58.9094 52.871 56.7454 53.1337 54.6471 52.9367C52.1553 52.8054 49.7291 52.2145 47.5651 51.0984C46.2537 48.9974 45.3356 46.6338 44.9422 44.139C26.5816 29.8919 33.3357 5.86233 50.3848 1.59478H50.5159V1.52913Z" fill="white"/>
<path fill-rule="evenodd" clip-rule="evenodd" d="M46.163 56.8151L42.9848 56L42.2785 59.2023C41.5722 62.9869 42.2196 66.8879 44.1031 70.2649C45.2802 72.4774 47.1636 74.2242 49.5179 75.214C50.6362 75.5633 51.7544 75.7962 52.9316 75.9127C54.2264 76.0291 55.5801 76.0291 56.875 75.9127C59.347 75.214 61.4658 73.5837 62.8195 71.3712C64.9384 68.2853 66.0566 64.6172 65.9978 60.8908L65.7035 57.5138L62.2898 57.9214C56.875 58.5619 51.4013 58.2125 46.163 56.8151ZM45.339 59.8428C51.0482 61.3566 57.0516 61.8224 62.9372 61.0655C63.2904 65.3159 59.9355 72.0699 56.4041 72.7686C55.4036 72.8268 54.3441 72.8268 53.3436 72.7686C52.4019 72.7103 51.519 72.5357 50.6362 72.2445C46.987 70.6725 44.3385 64.4425 45.3979 59.6681V59.8428H45.339Z" fill="#2A2941"/>
<path fill-rule="evenodd" clip-rule="evenodd" d="M12.3043 73L28 65.8571L26.4068 61L9 63.5143L12.3043 73ZM25.9348 65.0571L13.1304 70.8857L11.0652 64.7714L25.2267 62.7143L25.9348 65.0571Z" fill="#2A2941"/>
<path fill-rule="evenodd" clip-rule="evenodd" d="M28.9478 65L34 63.125L32.7826 59L27 60.5L28.9478 65ZM32.0522 62.2679L29.8609 63.0714L29.1304 61.4643L31.5652 60.8214L32.0522 62.2679Z" fill="#2A2941"/>
<path fill-rule="evenodd" clip-rule="evenodd" d="M21.6239 49.8844L2 45.6667L5.11111 37L23 46.6489L21.7436 50L21.6239 49.8844Z" fill="#2A2941"/>
<path fill-rule="evenodd" clip-rule="evenodd" d="M0 47.0683L21.8807 52L24 46.198L4.23866 35L0 47.0683ZM20.9069 50.2014L2.11933 45.9659L5.09785 37.2628L22.2243 46.9522L21.0215 50.3174L20.9069 50.2014Z" fill="#2A2941"/>
<path fill-rule="evenodd" clip-rule="evenodd" d="M29.9296 53L27 52.2632L27.7324 50L31 51.1053L30.0986 53H29.9296V53Z" fill="#2A2941"/>
<path fill-rule="evenodd" clip-rule="evenodd" d="M25 53.4444L30.9562 55L33 50.3333L26.6934 48L25 53.4444ZM30.0803 53.1667L26.9854 52.3889L27.7445 50L30.9562 51.1667L30.0803 53.1667Z" fill="#2A2941"/>
<path fill-rule="evenodd" clip-rule="evenodd" d="M49.195 31.0748C48.863 39.8061 47.9999 50.995 47.9999 50.995V52.7413L51.585 53V51.2537C51.585 51.2537 52.3816 40.8409 52.78 32.1096C54.3733 32.433 55.9666 32.5624 57.6264 32.5624C56.7633 40.8409 56.2986 51.1891 56.2986 51.1891V52.9353H59.8836V51.2537C59.8836 51.2537 60.3483 40.7115 61.2778 32.433H61.6761C63.4022 32.239 65.062 31.7862 66.5889 30.9455C67.0536 30.6221 67.3856 30.234 67.6511 29.7813C67.9167 29.3286 68.0495 28.7465 67.9831 28.2291C67.8503 26.1594 67.0536 24.0898 65.7922 22.4729C65.3939 21.8261 64.7964 21.3734 64.1325 20.9853C63.4686 20.662 62.7383 20.4679 61.9417 20.5326C61.5433 20.5973 61.145 20.7913 60.8131 20.9853C60.4811 21.244 60.2155 21.5028 60.0164 21.8261C58.9542 24.2191 58.3567 26.7415 58.1575 29.2639C56.4314 29.2639 54.7052 29.0699 53.0455 28.6818C53.2447 26.2241 53.2447 23.7017 53.0455 21.244C52.9127 20.662 52.6472 20.0799 52.2489 19.6271C51.8505 19.1744 51.3858 18.7864 50.7883 18.5277C49.8588 18.0749 48.863 17.8809 47.8672 18.0749C46.8713 18.2689 45.9419 18.7864 45.278 19.5625C44.7469 20.3386 44.3485 21.244 44.1494 22.1495C43.9502 23.055 43.9502 24.0251 44.1494 24.9953C44.3485 26.4181 45.0124 27.7763 45.9419 28.8758C46.8713 29.9753 48.1327 30.8161 49.4605 31.3335L49.195 31.0748ZM62.6056 24.0898C62.4728 24.4132 62.4064 24.8012 62.2736 25.1246C62.0081 26.1594 61.8089 27.3883 61.6097 28.8758C62.5392 28.7465 63.4686 28.4878 64.3981 28.0997C64.3981 27.9704 64.3981 27.7763 64.3981 27.647C64.2653 26.8062 63.9997 26.0301 63.535 25.3186C63.2695 24.9306 63.0039 24.5425 62.6719 24.2191L62.6056 24.0898ZM49.2613 21.6321C49.1286 21.5028 48.9958 21.3734 48.863 21.3087C48.7302 21.244 48.5311 21.1794 48.3983 21.1794C48.1991 21.1794 48.0663 21.244 47.9336 21.3087C47.7344 21.5028 47.668 21.7615 47.6016 21.9555C47.4688 22.6669 47.4688 23.443 47.6016 24.2191C47.668 24.8012 47.8672 25.3833 48.1991 25.9007C48.5311 26.4181 48.9958 26.8062 49.5269 27.1296C49.4605 25.3186 49.3941 23.5077 49.2613 21.6321Z" fill="#FEC34E"/>
<path fill-rule="evenodd" clip-rule="evenodd" d="M30 58.2937L17.0833 64L15 58.014L29.2857 56L30 58.2937Z" fill="#FEC34E"/>
<path fill-rule="evenodd" clip-rule="evenodd" d="M16.1304 66L31 58.8571L29.4907 54L13 56.5143L16.2422 65.9429H16.1304V66ZM29.0435 58.0571L16.913 63.8857L14.9565 57.7714L28.3727 55.7143L29.0435 58.0571Z" fill="#2A2941"/>
<path fill-rule="evenodd" clip-rule="evenodd" d="M36 55.3023L33.75 56L33 54.5581L35.5 54L36 55.3023Z" fill="#FEC34E"/>
<path fill-rule="evenodd" clip-rule="evenodd" d="M32.9478 58L38 56.1081L36.7826 52L31 53.5135L32.9478 58ZM36.0522 55.2973L33.8609 56.1081L33.1304 54.4324L35.5652 53.7838L36.0522 55.2973Z" fill="#2A2941"/>
<path fill-rule="evenodd" clip-rule="evenodd" d="M24.8034 42.8844L6 38.6089L8.96296 30L26 39.6489L24.8034 43V42.8844Z" fill="#F86F03"/>
<path fill-rule="evenodd" clip-rule="evenodd" d="M34.1176 46L31 45.2759L31.7647 43L35 44.1379L34.1176 46Z" fill="#F86F03"/>
<path fill-rule="evenodd" clip-rule="evenodd" d="M29 46.488L34.9562 48L37 43.352L30.6934 41L29 46.488ZM34.0803 46.208L30.9854 45.424L31.7445 42.96L34.9562 44.192L34.0803 46.208Z" fill="#2A2941"/>
<path fill-rule="evenodd" clip-rule="evenodd" d="M38.1479 97.6864L67.006 85.0734L81.9648 63.0783C85.3929 57.797 78.5367 52.7021 73.9868 57.2378C73.9868 57.2378 65.0115 70.7828 64.5752 71.0313C63.7649 71.342 63.8895 70.6585 63.3286 70.1615C60.7108 68.1732 55.1012 70.1614 50.5512 72.2118C42.6355 68.1732 31.6657 74.8836 30.5438 84.0171L38.1479 97.6864Z" fill="#2A2941"/>
<path fill-rule="evenodd" clip-rule="evenodd" d="M52.1718 71.1554C54.2909 70.4098 60.7731 67.3032 63.0169 69.9127C66.8813 74.3863 58.5916 77.4308 51.2368 80.1026" fill="#2A2941"/>
<path fill-rule="evenodd" clip-rule="evenodd" d="M19.574 84.017L31.0424 104.583L40.08 99.5503L28.7986 78.7979L19.574 84.017Z" fill="#2A2941"/>
<path fill-rule="evenodd" clip-rule="evenodd" d="M41.389 88.7391L70.2471 76.1261L85.2059 54.131C88.634 48.8497 81.7778 43.7548 77.2278 48.2905C77.2278 48.2905 68.2525 61.8355 67.8162 62.0841C67.006 62.3947 67.1306 61.7113 66.5697 61.2142C63.9519 59.2259 58.3423 61.2142 53.7923 63.2646C45.8766 59.2259 34.9068 65.9363 33.7849 75.0698L41.389 88.7391Z" fill="#FEC34E"/>
<path fill-rule="evenodd" clip-rule="evenodd" d="M67.1306 60.8414C67.0683 60.7793 66.9436 60.7171 66.8813 60.655C65.6347 59.723 63.8272 59.4123 61.5834 59.6609C59.0279 60.0337 55.9738 61.1521 53.2937 62.4568C49.1177 60.5929 44.1937 61.2763 40.0801 63.6995C35.9041 66.1848 32.6006 70.5341 32.102 75.4426L31.9774 75.8154L40.3294 90.9138L70.7457 77.8037L85.8915 55.3737C88.073 52.0185 86.9511 48.7255 84.5826 47.0479C82.2141 45.3703 78.6614 45.1217 75.8566 47.9799L75.732 48.042L75.6696 48.1041C75.732 48.1041 69.3121 57.859 67.1306 60.8414ZM41.5136 87.6207L34.7198 75.3805C35.4054 71.404 38.0232 67.9867 41.4513 65.9984C44.8794 63.948 49.1177 63.2024 52.7327 65.0664L53.2314 65.3771L53.8547 65.1286C56.4725 63.8859 59.4019 62.6432 61.9574 62.3326C63.2663 62.1462 64.5128 62.2083 65.2608 62.7675C65.4478 62.8918 65.4478 62.9539 65.5101 63.016C65.5724 63.2024 65.7594 63.3888 65.8217 63.451C66.258 63.8238 66.819 64.1344 67.8162 63.7616C67.8786 63.7616 68.3772 63.5131 68.8135 62.9539C70.434 60.7793 77.0409 50.838 77.7888 49.6574C79.4717 47.9799 81.6532 48.042 82.9621 49.0982C84.3956 50.1545 84.9566 52.0185 83.6477 53.9446L68.8758 75.6912L41.5136 87.6207Z" fill="#2A2941"/>
<path fill-rule="evenodd" clip-rule="evenodd" d="M55.9115 64.0102C57.158 63.5752 59.8382 62.3326 62.3313 61.8977C63.0169 61.7734 63.6402 61.7113 64.2635 61.8355C64.6998 61.8355 65.0114 62.0841 65.2607 62.3326C65.7594 62.8918 66.0087 63.451 65.9464 63.8859C65.8217 64.383 65.4477 64.88 65.0114 65.315C62.7676 67.3654 58.2176 68.9808 54.0416 70.5341L52.795 70.9691L53.73 73.3923L54.9765 72.9573C59.5265 71.2797 64.4505 69.4779 66.7566 67.2411C67.8785 66.3712 68.4395 65.315 68.5642 64.1966C68.6265 63.1403 68.3148 61.8977 67.2553 60.7171C66.1333 59.3502 64.1388 58.9774 61.895 59.2881C59.2149 59.723 56.2854 61.0899 54.9765 61.5249L53.73 61.9598L54.6649 64.4451L55.9115 64.0102Z" fill="#2A2941"/>
<path fill-rule="evenodd" clip-rule="evenodd" d="M22.8151 76.6852L34.2835 97.2513L43.3211 92.2185L32.0397 71.4661L22.8151 76.6852Z" fill="#F86F03"/>
<path fill-rule="evenodd" clip-rule="evenodd" d="M32.7876 69.54L21.2568 76.0019L34.0342 98.8668L45.378 92.5914L32.7876 69.54ZM24.8096 76.996L31.7904 73.1437L41.8252 91.5973L35.0314 95.3874L24.8096 76.996Z" fill="#2A2941"/>
<path fill-rule="evenodd" clip-rule="evenodd" d="M56.5304 0.0120983H55.8208C53.692 -0.052426 51.5633 0.141147 49.4345 0.592817C30.8563 5.17405 22.8573 31.1128 42.0161 46.9213C42.3387 48.3408 42.7902 49.7604 43.3063 51.1799C43.7578 52.4059 44.4674 53.5028 45.3705 54.4061C46.0156 54.9223 46.7252 55.3095 47.4993 55.5676C49.628 56.3419 51.8213 56.7935 54.0146 56.9226C56.7239 57.1807 59.4332 56.7935 61.949 55.7611C62.9811 54.9868 63.8197 54.019 64.4648 52.9221C65.1744 51.6316 65.8195 50.3411 66.3355 48.9215C87.107 36.6619 84.1397 11.1103 67.8837 2.78664C64.9809 1.43163 61.82 0.592817 58.5946 0.205671H56.4013L56.5304 0.0120983ZM50.1441 3.43189C52.8534 2.91569 55.6272 2.78664 58.3366 3.04474C61.1749 3.36736 63.9487 4.14166 66.5936 5.30309C81.3013 12.7234 83.4301 36.0812 64.0133 46.7922C64.0133 46.7922 62.1425 52.0187 60.2718 53.1802C58.3366 53.8899 56.2078 54.148 54.1436 53.8899C51.6923 53.8254 49.3055 53.1802 47.1767 52.0832C45.8866 50.0185 44.9835 47.6956 44.5964 45.2437C26.7923 31.2419 33.3721 7.62597 50.1441 3.43189Z" fill="#2A2941"/>
</svg>
