<svg width="68" height="73" viewBox="0 0 68 73" fill="none" xmlns="http://www.w3.org/2000/svg">
<path fill-rule="evenodd" clip-rule="evenodd" d="M65.1417 29.1511C59.9061 14.2392 48.1884 8.58509 38.2158 7.52883C24.6282 6.09977 8.04884 13.3693 3.31188 28.9647C-1.30043 43.566 4.62078 56.2411 13.2221 63.1379C19.7043 68.357 31.7337 73.8247 44.9473 69.289L65.1417 29.1511Z" fill="#2A2941"/>
<path fill-rule="evenodd" clip-rule="evenodd" d="M46.0692 70.7183L66.8869 29.3377L66.7 28.5921C61.215 12.8725 48.874 6.96982 38.3405 5.91356C24.0049 4.36023 6.67762 12.1269 1.62902 28.53C-3.10795 43.8147 3.1249 57.1733 12.1002 64.3807C18.894 69.9105 31.5467 75.6889 45.3836 70.8425L46.0692 70.7183ZM63.3965 29.027L43.7631 67.9844C31.4844 71.9609 20.2652 66.8039 14.157 61.8954C6.05434 55.3093 0.56943 43.3176 4.80777 29.462C9.29542 14.6743 25.0645 7.77755 38.0289 9.20661C47.3158 10.0765 58.3479 15.3578 63.3965 29.027Z" fill="#2A2941"/>
<path fill-rule="evenodd" clip-rule="evenodd" d="M65.578 23C60.4671 8.39877 48.9987 2.8068 39.2131 1.81267C25.8748 0.383615 9.66938 7.52891 4.99474 22.8136C0.507093 37.1042 6.24132 49.5308 14.718 56.3033C21.0755 61.3982 32.8556 66.8038 45.8199 62.3302L65.578 23Z" fill="#FEC34E"/>
<path fill-rule="evenodd" clip-rule="evenodd" d="M46.8172 63.635L67.1986 23.1243L67.0116 22.4409C61.6513 7.03187 49.5596 1.2535 39.2754 0.197241C25.2515 -1.35608 8.29816 6.28627 3.31188 22.3787C-1.30043 37.3528 4.74544 50.4007 13.5961 57.4839C20.2652 62.8894 32.6686 68.6057 46.1939 63.8214L46.8172 63.635ZM63.7705 22.8758L44.511 61.0254C32.4816 64.8777 21.4495 59.8449 15.5283 55.0607C7.61255 48.5989 2.2523 36.8557 6.42831 23.2486C10.8536 8.7716 26.2488 1.9991 38.9638 3.36602C48.0637 4.29802 58.8466 9.45506 63.7705 22.8758Z" fill="#2A2941"/>
<path d="M21.4495 50.1521C25.2515 48.1638 26.8097 43.566 24.8152 39.7759C22.883 36.0479 18.2084 34.5567 14.4064 36.5449C10.6043 38.5332 9.0461 43.131 11.0406 46.9212C12.9105 50.6491 17.5851 52.0782 21.4495 50.1521Z" fill="#F5F5F5"/>
<path d="M57.4753 32.8792C61.2774 30.953 62.7733 26.2931 60.8411 22.5651C58.9089 18.8371 54.2342 17.4081 50.4945 19.3342C46.7548 21.2603 45.1966 25.9203 47.1288 29.6483C48.9987 33.4384 53.6733 34.8674 57.4753 32.8792Z" fill="#F5F5F5"/>
<path fill-rule="evenodd" clip-rule="evenodd" d="M53.5486 26.9146C43.8877 33.8113 33.4789 39.4654 22.3221 43.5041C25.5008 48.9096 34.7254 53.5696 42.8281 50.5251C54.4836 46.0515 56.6651 34.8054 53.5486 26.9146Z" fill="#F5F5F5"/>
<path fill-rule="evenodd" clip-rule="evenodd" d="M54.1096 26.3553L53.3617 24.4292L51.6788 25.6097C42.1425 32.3822 31.8583 38.0363 20.8262 42.0128L19.0187 42.6963L20.0159 44.3739C23.5063 50.2765 33.6035 55.4336 42.5165 52.0162C55.1069 47.232 57.4753 34.9918 54.1096 26.3553ZM51.7411 29.5241C53.5487 36.5451 50.9932 45.368 41.3323 49.0339C34.7878 51.5192 27.4953 48.4747 23.8803 44.3118C33.7905 40.5838 43.0775 35.4889 51.7411 29.5241Z" fill="#2A2941"/>
<path fill-rule="evenodd" clip-rule="evenodd" d="M45.8199 61.8954C45.8199 61.8954 43.7631 53.5074 44.0747 49.2824C45.0096 33.8734 56.6651 26.4174 65.5157 22.938L45.8199 61.8954Z" fill="#FEC34E"/>
<path fill-rule="evenodd" clip-rule="evenodd" d="M44.2617 62.268C44.3863 62.9515 44.9473 63.3864 45.6329 63.4486C46.3185 63.5107 46.9418 63.2 47.2535 62.5787L66.9493 23.6213C67.1986 23 67.1362 22.3165 66.6999 21.8195C66.2013 21.3845 65.5157 21.136 64.8924 21.4467C55.6055 25.0504 43.4514 33.0034 42.4542 49.158C42.1425 53.5694 44.2617 62.268 44.2617 62.268ZM46.3809 57.1731C45.9446 54.6257 45.4459 51.519 45.6329 49.3444C46.3809 37.0421 54.4836 30.0832 62.0253 26.2309L46.3809 57.1731Z" fill="#2A2941"/>
<path fill-rule="evenodd" clip-rule="evenodd" d="M15.9646 34.3703C15.6529 31.8228 17.2735 29.8346 19.3926 28.8404C21.4495 27.8463 24.0673 27.8463 25.7501 29.5239L26.9344 30.6423L29.1782 28.3434L27.994 27.225C25.3138 24.6775 21.3248 24.429 18.0214 25.9823C14.7803 27.5357 12.3495 30.7044 12.7858 34.7431L12.9728 36.2964L16.1515 35.9236L15.9646 34.3703Z" fill="#2A2941"/>
<path fill-rule="evenodd" clip-rule="evenodd" d="M50.6815 15.979C47.7521 13.1209 43.7631 12.9967 40.522 14.6121C37.2809 16.2276 34.9747 19.5206 35.3487 23.1865L35.5357 24.8019L38.7145 24.4913L38.5275 22.8758C38.2782 20.5148 39.8987 18.5265 41.9555 17.4702C44.0124 16.4761 46.5678 16.414 48.4377 18.2158L49.5596 19.3342L51.8034 17.0974L50.6815 15.979Z" fill="#2A2941"/>
</svg>
