<svg width="171" height="50" viewBox="0 0 171 50" fill="none" xmlns="http://www.w3.org/2000/svg">
<path d="M11.96 13.52H11.48C9.10667 13.52 7.25333 14.12 5.92 15.32C4.61333 16.4933 3.96 18.5867 3.96 21.6C3.96 22.5867 4.05333 23.28 4.24 23.68C4.42667 24.0533 4.52 24.2667 4.52 24.32C3.08 24.32 2 24.0267 1.28 23.44C0.586667 22.8267 0.24 21.8267 0.24 20.44C0.24 18.5467 0.706667 16.8267 1.64 15.28C2.57333 13.7067 4.05333 12.44 6.08 11.48C8.13333 10.52 10.7333 10.04 13.88 10.04C15.64 10.04 17.5333 10.2 19.56 10.52C21.2667 10.8133 22.7867 10.96 24.12 10.96C25.8267 10.96 27.3733 10.68 28.76 10.12C28.7067 11.8533 28.2667 13.1333 27.44 13.96C26.6133 14.7867 25.3867 15.2 23.76 15.2C22.9067 15.2 22.0533 15.1333 21.2 15C20.3467 14.8667 19.1333 14.64 17.56 14.32L12.04 40H6.28L11.96 13.52ZM24.0578 40.24C22.5378 40.24 21.2711 39.72 20.2578 38.68C19.2445 37.64 18.7378 36.0133 18.7378 33.8C18.7378 31.8267 19.1245 29.76 19.8978 27.6C20.6978 25.4133 21.8711 23.5733 23.4178 22.08C24.9911 20.56 26.8578 19.8 29.0178 19.8C30.1111 19.8 30.9245 19.9867 31.4578 20.36C31.9911 20.7333 32.2578 21.2267 32.2578 21.84V22.12L32.6978 20H38.4578L35.5778 33.6C35.4711 34 35.4178 34.4267 35.4178 34.88C35.4178 36.0267 35.9645 36.6 37.0578 36.6C37.8045 36.6 38.4445 36.2533 38.9778 35.56C39.5378 34.8667 39.9778 33.96 40.2978 32.84H41.9778C40.9911 35.72 39.7645 37.68 38.2978 38.72C36.8578 39.7333 35.4045 40.24 33.9378 40.24C32.8178 40.24 31.9111 39.9333 31.2178 39.32C30.5511 38.68 30.1511 37.76 30.0178 36.56C29.2445 37.6533 28.3778 38.5467 27.4178 39.24C26.4845 39.9067 25.3645 40.24 24.0578 40.24ZM26.6578 36.36C27.3245 36.36 27.9778 36.0533 28.6178 35.44C29.2845 34.8 29.7378 33.9333 29.9778 32.84L31.8978 23.8C31.8978 23.4533 31.7645 23.12 31.4978 22.8C31.2311 22.4533 30.8178 22.28 30.2578 22.28C29.1911 22.28 28.2311 22.9067 27.3778 24.16C26.5245 25.3867 25.8578 26.88 25.3778 28.64C24.8978 30.3733 24.6578 31.9067 24.6578 33.24C24.6578 34.5733 24.8445 35.4267 25.2178 35.8C25.6178 36.1733 26.0978 36.36 26.6578 36.36ZM44.8725 40.24C43.5925 40.24 42.5125 40 41.6325 39.52C40.7525 39.0133 40.0992 38.3733 39.6725 37.6C39.2458 36.8 39.0325 35.9733 39.0325 35.12C39.0325 34.24 39.2458 33.48 39.6725 32.84C40.0725 32.1733 40.5658 31.6933 41.1525 31.4C42.1925 29.5333 43.0992 27.6533 43.8725 25.76C44.6458 23.84 45.3792 21.7733 46.0725 19.56L51.9925 18.76C52.1258 22.1733 52.3525 25.8667 52.6725 29.84C52.8058 31.44 52.8725 32.6 52.8725 33.32C52.8725 33.9333 52.8192 34.44 52.7125 34.84C53.9658 34.12 54.9258 33.4533 55.5925 32.84H57.2725C55.5658 34.8133 53.5258 36.48 51.1525 37.84C50.3792 38.6667 49.4192 39.28 48.2725 39.68C47.1525 40.0533 46.0192 40.24 44.8725 40.24ZM43.5925 37.08C44.5792 37.08 45.4058 36.7867 46.0725 36.2C46.7392 35.6133 47.0725 34.6667 47.0725 33.36C47.0725 32.56 46.9925 31.44 46.8325 30C46.5658 26.96 46.3925 24.92 46.3125 23.88C45.6725 25.9867 44.5925 28.5067 43.0725 31.44C43.6858 31.76 43.9925 32.2267 43.9925 32.84C43.9925 33.3467 43.8192 33.8 43.4725 34.2C43.1525 34.6 42.7392 34.8 42.2325 34.8C41.6725 34.8 41.3125 34.6267 41.1525 34.28C41.1525 35.24 41.3392 35.9467 41.7125 36.4C42.1125 36.8533 42.7392 37.08 43.5925 37.08ZM59.5459 40.24C58.2659 40.24 57.2259 39.84 56.4259 39.04C55.6526 38.24 55.2659 37.04 55.2659 35.44C55.2659 34.7733 55.3726 33.9067 55.5859 32.84L57.9859 21.6H56.6659L56.9859 20H58.3059L59.5059 14.48L65.4259 13.68L64.0659 20H66.4659L66.1459 21.6H63.7459L61.1859 33.6C61.0793 34 61.0259 34.4267 61.0259 34.88C61.0259 35.4133 61.1459 35.8 61.3859 36.04C61.6526 36.2533 62.0793 36.36 62.6659 36.36C63.4393 36.36 64.1593 36.04 64.8259 35.4C65.4926 34.7333 65.9726 33.88 66.2659 32.84H67.9459C66.9593 35.72 65.6926 37.68 64.1459 38.72C62.5993 39.7333 61.0659 40.24 59.5459 40.24ZM72.49 50C71.2367 50 70.13 49.5867 69.17 48.76C68.2367 47.96 67.77 46.9333 67.77 45.68C67.77 44.5067 68.0633 43.5467 68.65 42.8C69.2367 42.0533 69.9967 41.4667 70.93 41.04C71.8633 40.6133 73.1167 40.16 74.69 39.68L75.09 37.92C73.73 39.4667 72.1033 40.24 70.21 40.24C68.93 40.24 67.89 39.84 67.09 39.04C66.3167 38.24 65.93 37.04 65.93 35.44C65.93 34.7733 66.0367 33.9067 66.25 32.84L68.97 20H74.73L71.85 33.6C71.77 33.92 71.73 34.2533 71.73 34.6C71.73 35.7733 72.13 36.36 72.93 36.36C73.6767 36.36 74.3167 36.0533 74.85 35.44C75.3833 34.8 75.81 33.9333 76.13 32.84L78.85 20H84.65L79.77 43.2C79.2367 45.76 78.29 47.5333 76.93 48.52C75.5967 49.5067 74.1167 50 72.49 50ZM71.57 46.44C72.05 46.44 72.5033 46.1867 72.93 45.68C73.3567 45.2 73.69 44.4133 73.93 43.32L74.41 40.96C72.9967 41.44 71.9033 42 71.13 42.64C70.3567 43.28 69.97 44.1067 69.97 45.12C69.97 45.44 70.13 45.7333 70.45 46C70.77 46.2933 71.1433 46.44 71.57 46.44Z" fill="#F86F03"/>
<path d="M102.56 48.28C100.614 48.28 99.0403 47.7733 97.8403 46.76C96.667 45.7733 96.0803 44.4667 96.0803 42.84C96.0803 41.8267 96.3203 40.8933 96.8003 40.04C97.2803 39.1867 97.9336 38.52 98.7603 38.04C99.587 37.5333 100.494 37.28 101.48 37.28C102.494 37.28 103.307 37.5333 103.92 38.04C104.56 38.5467 104.88 39.2133 104.88 40.04C104.88 40.68 104.734 41.1867 104.44 41.56C104.2 41.24 103.867 40.9867 103.44 40.8C103.04 40.6133 102.614 40.52 102.16 40.52C101.36 40.52 100.707 40.7867 100.2 41.32C99.6936 41.8533 99.4403 42.5467 99.4403 43.4C99.4403 44.2533 99.6803 44.9467 100.16 45.48C100.667 46.0133 101.294 46.28 102.04 46.28C102.974 46.28 103.774 45.8667 104.44 45.04C105.107 44.2133 105.614 42.9867 105.96 41.36L107.96 32.52H107.8C107.08 33.5333 106.2 34.3067 105.16 34.84C104.147 35.3733 103.027 35.64 101.8 35.64C100.254 35.64 98.8936 35.2267 97.7203 34.4C96.547 33.5733 95.6403 32.4 95.0003 30.88C94.387 29.3333 94.0803 27.5467 94.0803 25.52C94.0803 22.5867 94.7203 19.92 96.0003 17.52C97.2803 15.0933 99.0403 13.1867 101.28 11.8C103.52 10.4133 105.987 9.72 108.68 9.72C110.947 9.72 112.734 10.2133 114.04 11.2C115.374 12.1867 116.04 13.5333 116.04 15.24C116.04 16.3867 115.76 17.3067 115.2 18C114.64 18.6933 113.907 19.04 113 19.04C112.494 19.04 112.014 18.9333 111.56 18.72C111.134 18.5067 110.774 18.2 110.48 17.8C110.96 17.48 111.36 16.9733 111.68 16.28C112.027 15.56 112.2 14.84 112.2 14.12C112.2 13.32 111.96 12.7067 111.48 12.28C111.027 11.8267 110.374 11.6 109.52 11.6C107.974 11.6 106.48 12.2933 105.04 13.68C103.6 15.04 102.44 16.8267 101.56 19.04C100.68 21.2533 100.24 23.5733 100.24 26C100.24 28 100.56 29.5333 101.2 30.6C101.84 31.64 102.76 32.16 103.96 32.16C105.4 32.16 106.667 31.4 107.76 29.88C108.88 28.36 109.774 26.1467 110.44 23.24L115.16 23.28L112.24 36.72C111.387 40.6933 110.174 43.6133 108.6 45.48C107.054 47.3467 105.04 48.28 102.56 48.28ZM120.405 40.24C119.125 40.24 118.085 39.84 117.285 39.04C116.512 38.24 116.125 37.04 116.125 35.44C116.125 34.7733 116.232 33.9067 116.445 32.84L119.165 20H124.925L122.045 33.6C121.965 34 121.925 34.3733 121.925 34.72C121.925 35.8133 122.325 36.36 123.125 36.36C123.872 36.36 124.512 36.0533 125.045 35.44C125.579 34.8 126.005 33.9333 126.325 32.84L129.045 20H134.805L131.925 33.6C131.819 34 131.765 34.4267 131.765 34.88C131.765 35.4133 131.885 35.8 132.125 36.04C132.392 36.2533 132.819 36.36 133.405 36.36C134.152 36.36 134.792 36.04 135.325 35.4C135.885 34.76 136.325 33.9067 136.645 32.84H138.325C137.339 35.72 136.112 37.68 134.645 38.72C133.205 39.7333 131.752 40.24 130.285 40.24C129.139 40.24 128.219 39.92 127.525 39.28C126.859 38.64 126.459 37.6933 126.325 36.44C125.419 37.9067 124.459 38.9067 123.445 39.44C122.459 39.9733 121.445 40.24 120.405 40.24ZM139.361 20H145.121L144.601 22.48C145.507 21.68 146.321 21.0667 147.041 20.64C147.787 20.2133 148.587 20 149.441 20C150.294 20 150.961 20.2933 151.441 20.88C151.947 21.4667 152.201 22.1733 152.201 23C152.201 23.7733 151.947 24.4533 151.441 25.04C150.934 25.6267 150.227 25.92 149.321 25.92C148.734 25.92 148.334 25.7867 148.121 25.52C147.934 25.2267 147.787 24.8133 147.681 24.28C147.601 23.9333 147.521 23.68 147.441 23.52C147.361 23.36 147.214 23.28 147.001 23.28C146.441 23.28 145.961 23.4 145.561 23.64C145.187 23.8533 144.694 24.24 144.081 24.8L140.881 40H135.121L139.361 20ZM155.64 40.24C154.36 40.24 153.32 39.84 152.52 39.04C151.746 38.24 151.36 37.04 151.36 35.44C151.36 34.7733 151.466 33.9067 151.68 32.84L154.4 20H160.16L157.28 33.6C157.2 33.92 157.16 34.2533 157.16 34.6C157.16 35.7733 157.56 36.36 158.36 36.36C159.106 36.36 159.746 36.0533 160.28 35.44C160.813 34.8 161.24 33.9333 161.56 32.84L164.28 20H170.04L167.16 33.6C167.053 34 167 34.4267 167 34.88C167 35.4133 167.12 35.8 167.36 36.04C167.626 36.2533 168.053 36.36 168.64 36.36C169.066 36.36 169.373 36.3333 169.56 36.28C169.773 36.2 169.906 36.1467 169.96 36.12C169.853 37.48 169.386 38.5067 168.56 39.2C167.733 39.8933 166.72 40.24 165.52 40.24C164.4 40.24 163.493 39.9067 162.8 39.24C162.133 38.5733 161.733 37.64 161.6 36.44C160.693 37.9067 159.733 38.9067 158.72 39.44C157.733 39.9733 156.706 40.24 155.64 40.24Z" fill="#FFA41B"/>
</svg>
