<svg width="87" height="97" viewBox="0 0 87 97" fill="none" xmlns="http://www.w3.org/2000/svg">
<path fill-rule="evenodd" clip-rule="evenodd" d="M31.4778 37.2267L37.9599 34.0579C41.388 29.5222 43.7565 24.303 44.8784 18.7732C46.4366 10.3852 41.6997 6.59512 42.8216 5.29033C46.7483 0.630354 53.4797 5.97379 55.8482 11.1308C56.8455 15.2937 56.8455 19.5809 55.8482 23.7438L75.357 15.9772C80.842 17.6548 78.4735 23.806 78.4735 23.806C79.72 23.9924 80.842 24.6137 81.5899 25.5457C82.4002 26.4777 82.8365 27.7203 82.7741 28.9009C82.7118 29.7707 82.4625 30.5785 82.0885 31.3241C81.7146 32.0697 81.1536 32.7531 80.468 33.2502C80.468 33.2502 86.5138 37.6616 80.7796 42.0731C83.2104 44.5584 84.5817 46.9816 82.5872 50.0882C66.6311 56.5501 59.8372 61.5207 52.7941 59.6567L43.0709 63.9439L31.4778 37.2267Z" fill="white"/>
<path fill-rule="evenodd" clip-rule="evenodd" d="M35.8408 31.3861L27.1771 35.6112L41.201 68.2931L53.0434 63.1361C56.2845 63.6332 59.6503 63.3225 62.7044 62.142C67.753 60.4644 74.1105 57.1092 83.7714 53.1948L84.7687 52.822L85.3296 51.89C86.4515 50.2746 86.9502 48.2863 86.7008 46.298C86.5139 44.869 85.9529 43.4399 85.0803 42.2594C85.8906 41.141 86.3269 39.8362 86.4515 38.4693C86.5139 36.6674 86.0152 34.9277 85.018 33.4365C84.8933 33.3122 84.831 33.188 84.7687 33.0637C85.5166 31.8211 85.9529 30.4541 86.0152 29.0251C86.0776 27.5339 85.7036 26.1048 85.018 24.8C84.3324 23.4952 83.2728 22.439 82.0262 21.6312C82.3378 19.7051 81.9015 17.6547 80.842 16.0393C79.7824 14.3617 78.0995 13.1812 76.1673 12.6841L75.0454 12.3113L59.7126 18.4003C60.0242 15.4801 59.7126 12.4977 58.7777 9.70171C56.9701 5.53879 53.6044 2.24574 49.4284 0.568153C47.8079 -0.0531772 46.0627 -0.177443 44.3798 0.257488C42.6969 0.692419 41.201 1.68655 40.1414 2.99134C39.6428 3.55054 39.3312 4.29613 39.2065 4.9796C39.0819 5.66306 39.1442 6.47079 39.3935 7.15425C41.2634 10.3852 42.0113 14.1131 41.4504 17.779C40.4531 22.7496 38.5209 27.2853 35.8408 31.3861ZM31.4778 37.2266L37.96 34.0578C41.388 29.5843 43.7565 24.303 44.8161 18.7731C46.3743 10.3852 41.6373 6.59505 42.7592 5.29026C46.6859 0.630285 53.4174 5.97372 55.7859 11.1308C56.7832 15.2937 56.7832 19.5809 55.7859 23.7438L75.2947 15.9771C80.7796 17.6547 78.4112 23.8059 78.4112 23.8059C79.6577 23.9923 80.7796 24.6136 81.5276 25.5456C82.3378 26.4776 82.7741 27.7203 82.7118 28.9008C82.6495 29.7707 82.4002 30.5784 81.9639 31.324C81.5899 32.0696 81.0289 32.753 80.3433 33.2501C80.3433 33.2501 86.3892 37.6616 80.655 42.073C83.1481 44.5583 84.457 46.9815 82.5248 50.0882C66.5687 56.55 59.7749 61.5206 52.6695 59.6566L42.9462 63.9438L31.4778 37.2266Z" fill="#2A2941"/>
<path fill-rule="evenodd" clip-rule="evenodd" d="M67.2543 30.7649L82.0262 24.3031L80.7173 21.2585L65.8831 27.7204L67.2543 30.7649Z" fill="#2A2941"/>
<path fill-rule="evenodd" clip-rule="evenodd" d="M71.4303 39.8985L84.457 34.3065L83.1481 31.262L70.0591 36.8539L71.4303 39.8985Z" fill="#2A2941"/>
<path fill-rule="evenodd" clip-rule="evenodd" d="M75.6686 45.4281L80.8419 43.1291L82.7741 42.3835" fill="#FAA2A2"/>
<path fill-rule="evenodd" clip-rule="evenodd" d="M74.7961 47.6029L81.4652 44.6827L85.0179 43.3779L83.8337 40.2712L80.281 41.6382L73.5495 44.5584L74.7961 47.6029Z" fill="#2A2941"/>
<path fill-rule="evenodd" clip-rule="evenodd" d="M30.7298 33.0015L23.6244 36.046L38.1469 69.8463L45.2524 66.8018L30.7298 33.0015Z" fill="#F86F03"/>
<path fill-rule="evenodd" clip-rule="evenodd" d="M47.9325 67.9203L31.7894 30.3298L21.1312 34.9277L37.2743 72.5181L47.9325 67.9203ZM30.7298 33.0015L23.6244 36.0461L38.1469 69.8464L45.2524 66.8019L30.7298 33.0015Z" fill="#2A2941"/>
<path fill-rule="evenodd" clip-rule="evenodd" d="M17.8901 51.1445C21.8168 49.5911 26.1175 49.2805 30.2312 50.2125C34.3449 51.0823 38.0846 53.1949 41.014 56.2394C43.9435 59.2839 45.8756 63.074 46.6859 67.1748C47.4338 71.2756 46.9352 75.5627 45.3147 79.415C43.6318 83.2672 40.8894 86.5603 37.3366 88.8592C33.7839 91.1581 29.6702 92.3387 25.4942 92.2765C21.2559 92.2144 17.2045 90.9717 13.7141 88.6107C10.2237 86.2496 7.54361 82.8944 5.92307 79.0422C4.86349 76.4326 4.30253 73.6366 4.36486 70.7785C4.42719 67.9204 4.98814 65.1865 6.11005 62.5769C7.23197 59.9674 8.85251 57.6684 10.9094 55.6802C12.8415 53.7541 15.2723 52.2007 17.8901 51.1445Z" fill="#FEC34E"/>
<path fill-rule="evenodd" clip-rule="evenodd" d="M16.0203 46.4844C11.221 48.5348 7.16964 51.9521 4.30253 56.2393C1.43542 60.5886 -0.0604571 65.6835 0.00187136 70.8405C0.0641999 75.9976 1.62241 81.0925 4.55185 85.3797C7.48129 89.6668 11.595 93.022 16.3943 94.9481C21.1936 96.9364 26.4915 97.4335 31.6024 96.3772C36.7134 95.3831 41.388 92.8356 45.0654 89.1698C48.7428 85.5039 51.2359 80.844 52.2955 75.749C53.2927 70.6541 52.7941 65.3728 50.8619 60.5886C48.1195 54.1268 42.9462 48.9697 36.4017 46.3601C29.8572 43.7505 22.5025 43.8127 16.0203 46.4844ZM17.8901 51.1444C21.8168 49.5911 26.1175 49.2804 30.2312 50.2124C34.3449 51.1444 38.0846 53.1948 41.014 56.2393C43.9435 59.2838 45.8756 63.0739 46.6859 67.1747C47.4339 71.2755 46.9352 75.5626 45.3147 79.4149C43.6318 83.2671 40.8894 86.5602 37.3366 88.8591C33.7839 91.158 29.6702 92.3386 25.4942 92.2764C21.2559 92.2143 17.2045 90.9716 13.7141 88.6106C10.2237 86.2495 7.54362 82.8943 5.92308 79.0421C4.86349 76.4325 4.30254 73.6365 4.36487 70.7784C4.36487 67.9824 4.98815 65.1864 6.11006 62.5769C7.23197 59.9673 8.85252 57.6683 10.9094 55.6801C12.8415 53.754 15.2724 52.2006 17.8901 51.1444Z" fill="#2A2941"/>
<path fill-rule="evenodd" clip-rule="evenodd" d="M24.871 70.4058L17.3915 73.5745L18.2641 75.6249L27.8627 71.6484L23.6867 61.1479L21.5676 62.0178L24.871 70.4058Z" fill="white"/>
<path fill-rule="evenodd" clip-rule="evenodd" d="M21.5675 57.047L18.3888 49.3425L16.5189 50.1503L19.6353 57.7926L21.5675 57.047Z" fill="#2A2941"/>
<path fill-rule="evenodd" clip-rule="evenodd" d="M9.47582 63.6332L4.80118 61.707L3.99091 63.571L8.66554 65.4971L9.47582 63.6332Z" fill="#2A2941"/>
<path fill-rule="evenodd" clip-rule="evenodd" d="M34.5942 55.183L36.4641 50.5231L34.5942 49.7153L32.7244 54.3753L34.5942 55.183Z" fill="#2A2941"/>
<path fill-rule="evenodd" clip-rule="evenodd" d="M17.8278 86.3738L15.7087 90.9716L17.5162 91.8415L19.6354 87.2436L17.8278 86.3738Z" fill="#2A2941"/>
<path fill-rule="evenodd" clip-rule="evenodd" d="M41.8866 78.0479L46.3742 80.409L47.3092 78.6071L42.8215 76.2461L41.8866 78.0479Z" fill="#2A2941"/>
<path fill-rule="evenodd" clip-rule="evenodd" d="M13.2778 75.3762L4.73883 79.1663L5.5491 81.0303L14.1504 77.3023L13.2778 75.3762Z" fill="#2A2941"/>
<path fill-rule="evenodd" clip-rule="evenodd" d="M47.4339 61.5828L38.7702 65.1243L39.5805 66.9883L48.2441 63.4468L47.4339 61.5828Z" fill="#2A2941"/>
<path fill-rule="evenodd" clip-rule="evenodd" d="M35.7161 91.0337L32.5373 83.3914L30.6675 84.137L33.7839 91.8414L35.7161 91.0337Z" fill="#2A2941"/>
<path fill-rule="evenodd" clip-rule="evenodd" d="M22.0662 22.9982C20.6326 21.5692 19.6354 19.8294 19.0744 17.9033C19.3237 17.282 19.76 16.7849 20.3833 16.4743C21.0066 16.2257 21.6922 16.1636 22.3155 16.4121C23.4997 18.0276 24.2477 19.9537 24.4347 21.942C24.4347 22.8118 22.8141 23.4953 22.0662 22.9982Z" fill="#FEC34E"/>
<path fill-rule="evenodd" clip-rule="evenodd" d="M20.8819 24.6136C21.3805 24.9864 22.0038 25.1728 22.6271 25.1728C23.2504 25.2349 23.8737 25.1106 24.4346 24.8C24.9956 24.5514 25.4942 24.1786 25.8682 23.6816C26.2422 23.1845 26.4915 22.6253 26.5538 22.004C26.4291 20.4507 26.0552 18.9595 25.4319 17.5304C25.0579 16.4742 24.4346 15.5422 23.6244 14.7966C23.0011 14.4238 22.3778 14.2374 21.6299 14.1752C20.9442 14.1131 20.2586 14.2995 19.6353 14.6102C19.0121 14.8587 18.3888 15.2936 18.0148 15.8528C17.5785 16.412 17.3292 17.0334 17.2045 17.7789C17.2045 18.6488 17.4538 19.4565 17.8278 20.2021C18.5758 21.8176 19.6353 23.3088 20.9442 24.6136H20.8819V24.6136ZM22.0661 22.936C20.6326 21.5069 19.6353 19.7672 19.0744 17.8411C19.3237 17.2198 19.76 16.7227 20.3833 16.412C21.0066 16.1635 21.6922 16.1014 22.3155 16.3499C23.4997 17.9653 24.2476 19.8915 24.4346 21.8797C24.4346 22.7496 22.8141 23.4952 22.0661 22.936Z" fill="#2A2941"/>
<path fill-rule="evenodd" clip-rule="evenodd" d="M13.2155 30.8891C11.2833 30.392 9.47582 29.3979 8.04226 28.031C7.4813 27.099 8.91486 24.9865 10.0991 25.1107C11.9066 25.8563 13.5272 27.099 14.7114 28.6523C15.1477 29.5843 14.0881 31.0134 13.2155 30.8891Z" fill="#FEC34E"/>
<path fill-rule="evenodd" clip-rule="evenodd" d="M12.9662 32.8151C13.5895 32.8151 14.1505 32.6908 14.7114 32.4423C15.2724 32.1937 15.7087 31.7588 16.0826 31.2617C16.4566 30.7647 16.7059 30.1433 16.7683 29.522C16.8306 28.9007 16.7683 28.2794 16.5189 27.7202C15.584 26.4775 14.5244 25.3591 13.2155 24.4271C12.3429 23.7436 11.3457 23.2466 10.2861 22.998C9.60049 22.998 8.91487 23.1844 8.29158 23.4951C7.6683 23.8058 7.16967 24.3028 6.73337 24.9242C6.29707 25.4834 6.04776 26.1668 5.98543 26.8503C5.9231 27.5338 5.98543 28.2794 6.23475 28.9007C6.67105 29.5841 7.29433 30.2055 8.04227 30.6404C9.53815 31.6345 11.221 32.3801 12.9662 32.8151V32.8151ZM13.2155 30.7647C11.2834 30.2676 9.47583 29.2735 8.04227 27.9066C7.48131 26.9746 8.91487 24.862 10.0991 24.9863C11.9066 25.7319 13.5272 26.9746 14.7114 28.5279C15.1477 29.5841 14.0881 31.0132 13.2155 30.8889V30.7647Z" fill="#2A2941"/>
<path fill-rule="evenodd" clip-rule="evenodd" d="M9.72512 41.6382C7.85526 42.2595 5.79842 42.4459 3.86624 42.0731C2.86898 41.576 2.93131 39.0286 3.86624 38.5315C5.86075 38.2209 7.85526 38.3451 9.78744 39.0286C9.97443 39.215 10.0991 39.4014 10.2237 39.6499C10.3484 39.8984 10.3484 40.147 10.3484 40.3955C10.3484 40.644 10.2861 40.8926 10.2237 41.1411C10.0368 41.2654 9.9121 41.5139 9.72512 41.6382Z" fill="#FEC34E"/>
<path fill-rule="evenodd" clip-rule="evenodd" d="M10.5354 43.44C11.034 43.1293 11.4703 42.6944 11.782 42.1352C12.0936 41.576 12.2806 41.0168 12.2806 40.3955C12.2806 39.7741 12.1559 39.1528 11.9066 38.5936C11.595 38.0344 11.221 37.5995 10.6601 37.2267C9.2265 36.6675 7.66828 36.3568 6.11007 36.2947C4.98816 36.1704 3.92857 36.3568 2.86899 36.7296C2.30803 37.1024 1.8094 37.6616 1.43543 38.2829C1.12379 38.9043 0.936808 39.5877 0.936808 40.2712C0.87448 40.9547 1.06146 41.6381 1.37311 42.2595C1.68475 42.8808 2.18337 43.44 2.74433 43.8128C3.49227 44.1856 4.30254 44.3098 5.17514 44.3098C6.98267 44.3098 8.72787 43.9992 10.4107 43.44H10.5354ZM9.72512 41.576C7.85527 42.1973 5.79843 42.3837 3.80392 42.0109C3.30529 41.5139 3.05597 40.8925 3.05597 40.2091C3.05597 39.5256 3.30529 38.9043 3.80392 38.4072C5.79843 38.0965 7.85527 38.2208 9.72512 38.9043C9.91211 39.0907 10.0368 39.2771 10.1614 39.5256C10.2861 39.7741 10.2861 40.0227 10.2861 40.2091C10.2861 40.4576 10.2237 40.7061 10.1614 40.8925C10.0368 41.2032 9.91211 41.4517 9.72512 41.576Z" fill="#2A2941"/>
</svg>
